<svg width="16" height="16" viewBox="0 0 16 16" fill="none" xmlns="http://www.w3.org/2000/svg">
<path fill-rule="evenodd" clip-rule="evenodd" d="M1.01772 10.2446C1.66935 9.57659 2.55316 9.20129 3.47471 9.20129H8.64638C9.56793 9.20129 10.4517 9.57659 11.1034 10.2446C11.755 10.9126 12.1211 11.8187 12.1211 12.7634V14.0889C12.1211 14.5921 11.8 15.0001 11.3091 15.0001C10.8181 15.0001 10.497 14.5921 10.497 14.0889V12.5001C10.497 12.0387 10.3182 11.5963 10 11.27C9.68176 10.9438 9.25013 10.7605 8.80007 10.7605H3.19993C2.74987 10.7605 2.31824 10.9438 2 11.27C1.68176 11.5963 1.50297 12.0387 1.50297 12.5001V14.0889C1.50297 14.5921 1.2424 15.0001 0.751487 15.0001C0.260572 15.0001 0 14.5921 0 14.0889V12.7634C0 11.8187 0.366085 10.9126 1.01772 10.2446Z" fill="white"/>
<path fill-rule="evenodd" clip-rule="evenodd" d="M1.01772 10.2446C1.66935 9.57659 2.55316 9.20129 3.47471 9.20129H8.64638C9.56793 9.20129 10.4517 9.57659 11.1034 10.2446C11.755 10.9126 12.1211 11.8187 12.1211 12.7634V14.0889C12.1211 14.5921 11.8 15.0001 11.3091 15.0001C10.8181 15.0001 10.497 14.5921 10.497 14.0889V12.5001C10.497 12.0387 10.3182 11.5963 10 11.27C9.68176 10.9438 9.25013 10.7605 8.80007 10.7605H3.19993C2.74987 10.7605 2.31824 10.9438 2 11.27C1.68176 11.5963 1.50297 12.0387 1.50297 12.5001V14.0889C1.50297 14.5921 1.2424 15.0001 0.751487 15.0001C0.260572 15.0001 0 14.5921 0 14.0889V12.7634C0 11.8187 0.366085 10.9126 1.01772 10.2446Z" fill="#4E5D78"/>
<path fill-rule="evenodd" clip-rule="evenodd" d="M6.06065 2.5C5 2.5 4 3 4 4.56213C4 6 5 6.5 6.06065 6.5C6.99785 6.5 8 6 8 4.56213C8 3 6.99785 2.5 6.06065 2.5ZM2.58594 4.56213C2.58594 2.59482 4.14162 1 6.06065 1C7.97968 1 9.53536 2.59482 9.53536 4.56213C9.53536 6.52944 7.97968 8.12426 6.06065 8.12426C4.14162 8.12426 2.58594 6.52944 2.58594 4.56213Z" fill="white"/>
<path fill-rule="evenodd" clip-rule="evenodd" d="M6.06065 2.5C5 2.5 4 3 4 4.56213C4 6 5 6.5 6.06065 6.5C6.99785 6.5 8 6 8 4.56213C8 3 6.99785 2.5 6.06065 2.5ZM2.58594 4.56213C2.58594 2.59482 4.14162 1 6.06065 1C7.97968 1 9.53536 2.59482 9.53536 4.56213C9.53536 6.52944 7.97968 8.12426 6.06065 8.12426C4.14162 8.12426 2.58594 6.52944 2.58594 4.56213Z" fill="#4E5D78"/>
<path fill-rule="evenodd" clip-rule="evenodd" d="M12.3116 10.1127C12.3116 9.50006 12.9192 9.10462 13.3945 9.23043C14.14 9.42775 14.8004 9.87327 15.2721 10.4971C15.7437 11.1208 16 11.8875 16.0006 12.6768V14.0029C16.0006 14.5062 15.741 14.9142 15.2501 14.9142C14.7592 14.9142 14.4996 14.5062 14.4996 14.0029L14.5 12.6779C14.4996 12.2925 14.3745 11.9182 14.1442 11.6136C13.9138 11.309 13.5913 11.0914 13.2273 10.995C12.7519 10.8692 12.3121 10.5001 12.3116 10.1127Z" fill="white"/>
<path fill-rule="evenodd" clip-rule="evenodd" d="M12.3116 10.1127C12.3116 9.50006 12.9192 9.10462 13.3945 9.23043C14.14 9.42775 14.8004 9.87327 15.2721 10.4971C15.7437 11.1208 16 11.8875 16.0006 12.6768V14.0029C16.0006 14.5062 15.741 14.9142 15.2501 14.9142C14.7592 14.9142 14.4996 14.5062 14.4996 14.0029L14.5 12.6779C14.4996 12.2925 14.3745 11.9182 14.1442 11.6136C13.9138 11.309 13.5913 11.0914 13.2273 10.995C12.7519 10.8692 12.3121 10.5001 12.3116 10.1127Z" fill="#4E5D78"/>
<path fill-rule="evenodd" clip-rule="evenodd" d="M9.72523 1.77156C9.847 1.28402 10.3312 0.989987 10.8068 1.11482C11.5542 1.311 12.2167 1.75662 12.6898 2.38143C13.1629 3.00624 13.4197 3.77468 13.4197 4.56563C13.4197 5.35658 13.1629 6.12502 12.6898 6.74983C12.2167 7.37463 11.5542 7.82026 10.8068 8.01644C10.3312 8.14127 9.847 7.84724 9.72523 7.3597C9.60347 6.87216 10.1045 6.37574 10.5801 6.25091C10.9451 6.1551 11.2687 5.93747 11.4997 5.63233C11.7307 5.32719 11.8561 4.9519 11.8561 4.56563C11.8561 4.17936 11.7307 3.80407 11.4997 3.49893C11.2687 3.19379 10.9451 2.97616 10.5801 2.88035C10.1045 2.75552 9.60347 2.2591 9.72523 1.77156Z" fill="white"/>
<path fill-rule="evenodd" clip-rule="evenodd" d="M9.72523 1.77156C9.847 1.28402 10.3312 0.989987 10.8068 1.11482C11.5542 1.311 12.2167 1.75662 12.6898 2.38143C13.1629 3.00624 13.4197 3.77468 13.4197 4.56563C13.4197 5.35658 13.1629 6.12502 12.6898 6.74983C12.2167 7.37463 11.5542 7.82026 10.8068 8.01644C10.3312 8.14127 9.847 7.84724 9.72523 7.3597C9.60347 6.87216 10.1045 6.37574 10.5801 6.25091C10.9451 6.1551 11.2687 5.93747 11.4997 5.63233C11.7307 5.32719 11.8561 4.9519 11.8561 4.56563C11.8561 4.17936 11.7307 3.80407 11.4997 3.49893C11.2687 3.19379 10.9451 2.97616 10.5801 2.88035C10.1045 2.75552 9.60347 2.2591 9.72523 1.77156Z" fill="#4E5D78"/>
</svg>
