<svg width="40" height="40" viewBox="0 0 40 40" fill="none" xmlns="http://www.w3.org/2000/svg">
<rect width="40" height="40" rx="6" fill="#FF5630"/>
<rect width="40" height="40" rx="6" fill="white" fill-opacity="0.8"/>
<path fill-rule="evenodd" clip-rule="evenodd" d="M12 15.1995C10.8954 15.1995 10 16.095 10 17.1995V25.9997C10 27.1042 10.8954 27.9997 12 27.9997H28C29.1046 27.9997 30 27.1043 30 25.9997V17.1995C30 16.095 29.1046 15.1995 28 15.1995H12ZM15.5554 21.5999C15.5554 23.9563 17.5453 25.8666 19.9999 25.8666C22.4545 25.8666 24.4443 23.9563 24.4443 21.5999C24.4443 19.2434 22.4545 17.3332 19.9999 17.3332C17.5453 17.3332 15.5554 19.2434 15.5554 21.5999Z" fill="#FF5630"/>
<rect x="16.6663" y="12" width="6.66667" height="2.13336" rx="1.06668" fill="#FF5630"/>
<path opacity="0.3" fill-rule="evenodd" clip-rule="evenodd" d="M20.0005 23.7337C21.2278 23.7337 22.2228 22.7785 22.2228 21.6003C22.2228 20.4221 21.2278 19.4669 20.0005 19.4669C18.7732 19.4669 17.7783 20.4221 17.7783 21.6003C17.7783 22.7785 18.7732 23.7337 20.0005 23.7337Z" fill="#FF5630"/>
</svg>
