<svg width="40" height="40" viewBox="0 0 40 40" fill="none" xmlns="http://www.w3.org/2000/svg">
<rect width="40" height="40" rx="6" fill="#38CB89"/>
<rect width="40" height="40" rx="6" fill="white" fill-opacity="0.8"/>
<path fill-rule="evenodd" clip-rule="evenodd" d="M20.9998 26.4807C20.9998 26.8457 21.3803 27.0964 21.7219 26.968C22.9647 26.5007 25.7447 25.6044 29.5379 25.2614C29.7981 25.2378 29.9999 25.0276 29.9999 24.7662C29.9999 22.851 29.9999 15.4811 29.9999 13.4912C29.9999 13.215 29.7784 12.9957 29.5026 13.0095C28.2476 13.0722 24.8012 13.3808 21.2951 14.9009C21.115 14.979 20.9998 15.1574 20.9998 15.3537C20.9998 16.9573 20.9998 24.0941 20.9998 26.4807Z" fill="#38CB89"/>
<path opacity="0.6" fill-rule="evenodd" clip-rule="evenodd" d="M19.0003 26.4807C19.0003 26.8457 18.6198 27.0964 18.2782 26.968C17.0355 26.5007 14.2554 25.6044 10.4623 25.2614C10.202 25.2378 10.0003 25.0276 10.0003 24.7662C10.0003 22.851 10.0003 15.4811 10.0003 13.4912C10.0003 13.215 10.2217 12.9957 10.4975 13.0095C11.7526 13.0722 15.1989 13.3808 18.705 14.9009C18.8851 14.979 19.0003 15.1574 19.0003 15.3537C19.0003 16.9573 19.0003 24.0941 19.0003 26.4807Z" fill="#38CB89"/>
</svg>
