<svg width="40" height="40" viewBox="0 0 40 40" fill="none" xmlns="http://www.w3.org/2000/svg">
<rect width="40" height="40" rx="6" fill="#FFAB00"/>
<rect width="40" height="40" rx="6" fill="white" fill-opacity="0.8"/>
<path d="M29 22.0659C29 22.6797 28.6826 23.2522 28.1298 23.6362C27.7171 23.9236 27.2172 24.0753 26.6855 24.0753C25.9766 24.0753 25.3154 23.7971 24.871 23.312L24.4583 22.8568L24.0431 23.312C23.6013 23.7971 22.94 24.073 22.2285 24.073C21.517 24.073 20.8557 23.7948 20.414 23.3097L20.0013 22.8568L19.586 23.312C19.1443 23.7971 18.483 24.0753 17.7715 24.0753C17.06 24.0753 16.3987 23.7971 15.9569 23.312L15.5443 22.8568L15.129 23.312C14.6873 23.7971 14.026 24.0753 13.3145 24.0753C12.7828 24.0753 12.2829 23.9236 11.8702 23.6362C11.3174 23.2522 11 22.6797 11 22.0659C11 20.9577 12.0369 20.0542 13.3145 20.0542C13.5578 20.0542 14.5815 20.0542 15.9622 20.0565L18.0492 20.0588V16.1618C18.0492 15.8491 18.3428 15.5939 18.7026 15.5939H21.3159C21.6757 15.5939 21.9693 15.8491 21.9693 16.1618V20.0588C24.3314 20.0611 26.3284 20.0611 26.6855 20.0611C27.9631 20.0611 29 20.96 29 22.0659Z" fill="#FFAB00"/>
<path d="M28.8675 24.3006V29.2666C28.8675 29.6713 28.4893 30.0001 28.0237 30.0001H11.997C11.5314 30.0001 11.1532 29.6713 11.1532 29.2666V24.3098C11.1717 24.3236 11.1902 24.3373 11.2114 24.3511C11.3198 24.427 11.4336 24.496 11.55 24.5581C12.079 24.8409 12.69 24.9926 13.3142 24.9926C14.1475 24.9926 14.9331 24.7305 15.5441 24.2615C16.1551 24.7305 16.9407 24.9926 17.7739 24.9926C18.6071 24.9926 19.3927 24.7305 20.0037 24.2615C20.6148 24.7305 21.4004 24.9926 22.2336 24.9926C23.0668 24.9926 23.8524 24.7305 24.4634 24.2615C25.0744 24.7305 25.86 24.9926 26.6932 24.9926C27.3254 24.9926 27.9444 24.8363 28.476 24.5489C28.5871 24.4891 28.6956 24.4224 28.7961 24.3511C28.8173 24.3373 28.8411 24.319 28.8675 24.3006Z" fill="#FFAB00"/>
<path d="M17.7789 13.0647V13.0601C17.8053 11.5703 19.6701 10.2368 19.7521 10.1793L20.0087 10L20.26 10.1839C20.2812 10.2 20.7837 10.5725 21.2757 11.099C21.9634 11.8393 22.2835 12.5037 22.2253 13.0808C22.2147 14.1384 21.2228 14.996 20.0034 14.996C18.7761 14.996 17.7789 14.1292 17.7789 13.0647Z" fill="#FFAB00"/>
</svg>
