<svg width="14" height="14" viewBox="0 0 14 14" fill="none" xmlns="http://www.w3.org/2000/svg">
<path d="M7 0C5.61553 0 4.26216 0.410543 3.11101 1.17971C1.95987 1.94888 1.06266 3.04213 0.532846 4.32122C0.003033 5.6003 -0.13559 7.00776 0.134506 8.36563C0.404603 9.7235 1.07129 10.9708 2.05026 11.9497C3.02922 12.9287 4.2765 13.5954 5.63437 13.8655C6.99224 14.1356 8.3997 13.997 9.67879 13.4672C10.9579 12.9373 12.0511 12.0401 12.8203 10.889C13.5895 9.73785 14 8.38447 14 7C13.998 5.1441 13.2599 3.36479 11.9475 2.05247C10.6352 0.74015 8.8559 0.0020073 7 0ZM12.8333 7C12.834 8.14316 12.4967 9.26101 11.8638 10.213L11.1685 9.51708C11.114 9.46242 11.0834 9.38837 11.0833 9.31117V8.75C11.0833 8.28587 10.899 7.84075 10.5708 7.51256C10.2426 7.18437 9.79746 7 9.33333 7H7.58334C7.42863 7 7.28025 6.93854 7.17086 6.82914C7.06146 6.71975 7 6.57138 7 6.41667V6.125C7 6.04764 7.03073 5.97346 7.08543 5.91876C7.14013 5.86406 7.21431 5.83333 7.29167 5.83333C7.67844 5.83333 8.04938 5.67969 8.32287 5.4062C8.59636 5.13271 8.75 4.76177 8.75 4.375V3.79167C8.75 3.71431 8.78073 3.64012 8.83543 3.58543C8.89013 3.53073 8.96431 3.5 9.04167 3.5H9.84609C10.2325 3.4989 10.6029 3.34547 10.8768 3.073L11.0968 2.85308C11.6469 3.39446 12.0839 4.03996 12.382 4.75193C12.6802 5.46391 12.8336 6.22812 12.8333 7ZM1.19525 7.56175L3.03742 9.40392C3.19953 9.56707 3.39242 9.69641 3.60491 9.78443C3.8174 9.87245 4.04526 9.9174 4.27525 9.91667H5.83334C5.98805 9.91667 6.13642 9.97812 6.24581 10.0875C6.35521 10.1969 6.41667 10.3453 6.41667 10.5V12.8036C5.07512 12.6666 3.82223 12.0698 2.87054 11.1144C1.91886 10.159 1.32696 8.90383 1.19525 7.56175ZM7.58334 12.8036V10.5C7.58334 10.0359 7.39896 9.59075 7.07077 9.26256C6.74258 8.93437 6.29746 8.75 5.83334 8.75H4.27525C4.19856 8.75006 4.1226 8.73499 4.05173 8.70567C3.98087 8.67634 3.91648 8.63332 3.86225 8.57908L1.26175 5.97858C1.42869 5.02962 1.8286 4.13694 2.42561 3.38064C3.02261 2.62434 3.79803 2.02808 4.6823 1.64536C5.56657 1.26264 6.53201 1.10543 7.49202 1.18783C8.45203 1.27024 9.37656 1.58968 10.1827 2.1175L10.052 2.24817C9.99709 2.30232 9.9232 2.33288 9.84609 2.33333H9.04167C8.65489 2.33333 8.28396 2.48698 8.01047 2.76047C7.73698 3.03396 7.58334 3.40489 7.58334 3.79167V4.375C7.58334 4.45235 7.55261 4.52654 7.49791 4.58124C7.44321 4.63594 7.36902 4.66667 7.29167 4.66667C6.90489 4.66667 6.53396 4.82031 6.26047 5.0938C5.98698 5.36729 5.83334 5.73822 5.83334 6.125V6.41667C5.83334 6.88079 6.01771 7.32591 6.3459 7.6541C6.67409 7.98229 7.11921 8.16667 7.58334 8.16667H9.33333C9.48804 8.16667 9.63642 8.22812 9.74581 8.33752C9.85521 8.44692 9.91667 8.59529 9.91667 8.75V9.31117C9.91777 9.69756 10.0712 10.0679 10.3437 10.3419L11.1236 11.1218C10.1736 12.0751 8.92244 12.6695 7.58334 12.8036Z" fill="white"/>
<path d="M7 0C5.61553 0 4.26216 0.410543 3.11101 1.17971C1.95987 1.94888 1.06266 3.04213 0.532846 4.32122C0.003033 5.6003 -0.13559 7.00776 0.134506 8.36563C0.404603 9.7235 1.07129 10.9708 2.05026 11.9497C3.02922 12.9287 4.2765 13.5954 5.63437 13.8655C6.99224 14.1356 8.3997 13.997 9.67879 13.4672C10.9579 12.9373 12.0511 12.0401 12.8203 10.889C13.5895 9.73785 14 8.38447 14 7C13.998 5.1441 13.2599 3.36479 11.9475 2.05247C10.6352 0.74015 8.8559 0.0020073 7 0ZM12.8333 7C12.834 8.14316 12.4967 9.26101 11.8638 10.213L11.1685 9.51708C11.114 9.46242 11.0834 9.38837 11.0833 9.31117V8.75C11.0833 8.28587 10.899 7.84075 10.5708 7.51256C10.2426 7.18437 9.79746 7 9.33333 7H7.58334C7.42863 7 7.28025 6.93854 7.17086 6.82914C7.06146 6.71975 7 6.57138 7 6.41667V6.125C7 6.04764 7.03073 5.97346 7.08543 5.91876C7.14013 5.86406 7.21431 5.83333 7.29167 5.83333C7.67844 5.83333 8.04938 5.67969 8.32287 5.4062C8.59636 5.13271 8.75 4.76177 8.75 4.375V3.79167C8.75 3.71431 8.78073 3.64012 8.83543 3.58543C8.89013 3.53073 8.96431 3.5 9.04167 3.5H9.84609C10.2325 3.4989 10.6029 3.34547 10.8768 3.073L11.0968 2.85308C11.6469 3.39446 12.0839 4.03996 12.382 4.75193C12.6802 5.46391 12.8336 6.22812 12.8333 7ZM1.19525 7.56175L3.03742 9.40392C3.19953 9.56707 3.39242 9.69641 3.60491 9.78443C3.8174 9.87245 4.04526 9.9174 4.27525 9.91667H5.83334C5.98805 9.91667 6.13642 9.97812 6.24581 10.0875C6.35521 10.1969 6.41667 10.3453 6.41667 10.5V12.8036C5.07512 12.6666 3.82223 12.0698 2.87054 11.1144C1.91886 10.159 1.32696 8.90383 1.19525 7.56175ZM7.58334 12.8036V10.5C7.58334 10.0359 7.39896 9.59075 7.07077 9.26256C6.74258 8.93437 6.29746 8.75 5.83334 8.75H4.27525C4.19856 8.75006 4.1226 8.73499 4.05173 8.70567C3.98087 8.67634 3.91648 8.63332 3.86225 8.57908L1.26175 5.97858C1.42869 5.02962 1.8286 4.13694 2.42561 3.38064C3.02261 2.62434 3.79803 2.02808 4.6823 1.64536C5.56657 1.26264 6.53201 1.10543 7.49202 1.18783C8.45203 1.27024 9.37656 1.58968 10.1827 2.1175L10.052 2.24817C9.99709 2.30232 9.9232 2.33288 9.84609 2.33333H9.04167C8.65489 2.33333 8.28396 2.48698 8.01047 2.76047C7.73698 3.03396 7.58334 3.40489 7.58334 3.79167V4.375C7.58334 4.45235 7.55261 4.52654 7.49791 4.58124C7.44321 4.63594 7.36902 4.66667 7.29167 4.66667C6.90489 4.66667 6.53396 4.82031 6.26047 5.0938C5.98698 5.36729 5.83334 5.73822 5.83334 6.125V6.41667C5.83334 6.88079 6.01771 7.32591 6.3459 7.6541C6.67409 7.98229 7.11921 8.16667 7.58334 8.16667H9.33333C9.48804 8.16667 9.63642 8.22812 9.74581 8.33752C9.85521 8.44692 9.91667 8.59529 9.91667 8.75V9.31117C9.91777 9.69756 10.0712 10.0679 10.3437 10.3419L11.1236 11.1218C10.1736 12.0751 8.92244 12.6695 7.58334 12.8036Z" fill="#4E5D78"/>
</svg>
