<svg width="16" height="16" viewBox="0 0 16 16" fill="none" xmlns="http://www.w3.org/2000/svg">
<path fill-rule="evenodd" clip-rule="evenodd" d="M3.1 8.00002C2.7134 8.00002 2.4 8.32563 2.4 8.72729V13.8182C2.4 14.2199 2.7134 14.5455 3.1 14.5455H12.9C13.2866 14.5455 13.6 14.2199 13.6 13.8182V8.72729C13.6 8.32563 13.2866 8.00002 12.9 8.00002H3.1ZM1 8.72729C1 7.5223 1.9402 6.54547 3.1 6.54547H12.9C14.0598 6.54547 15 7.5223 15 8.72729V13.8182C15 15.0232 14.0598 16 12.9 16H3.1C1.9402 16 1 15.0232 1 13.8182V8.72729Z" fill="white"/>
<path fill-rule="evenodd" clip-rule="evenodd" d="M3.1 8.00002C2.7134 8.00002 2.4 8.32563 2.4 8.72729V13.8182C2.4 14.2199 2.7134 14.5455 3.1 14.5455H12.9C13.2866 14.5455 13.6 14.2199 13.6 13.8182V8.72729C13.6 8.32563 13.2866 8.00002 12.9 8.00002H3.1ZM1 8.72729C1 7.5223 1.9402 6.54547 3.1 6.54547H12.9C14.0598 6.54547 15 7.5223 15 8.72729V13.8182C15 15.0232 14.0598 16 12.9 16H3.1C1.9402 16 1 15.0232 1 13.8182V8.72729Z" fill="#4E5D78"/>
<path fill-rule="evenodd" clip-rule="evenodd" d="M8.00008 1.45455C7.25747 1.45455 6.54528 1.76104 6.02018 2.3066C5.49508 2.85216 5.20008 3.5921 5.20008 4.36364V7.27273C5.20008 7.67439 4.88668 8 4.50008 8C4.11348 8 3.80008 7.67439 3.80008 7.27273V4.36364C3.80008 3.20633 4.24258 2.09642 5.03023 1.27808C5.81788 0.459739 6.88617 0 8.00008 0C9.11399 0 10.1823 0.459739 10.9699 1.27808C11.7576 2.09642 12.2001 3.20633 12.2001 4.36364V7.27273C12.2001 7.67439 11.8867 8 11.5001 8C11.1135 8 10.8001 7.67439 10.8001 7.27273V4.36364C10.8001 3.5921 10.5051 2.85216 9.97998 2.3066C9.45488 1.76104 8.74269 1.45455 8.00008 1.45455Z" fill="white"/>
<path fill-rule="evenodd" clip-rule="evenodd" d="M8.00008 1.45455C7.25747 1.45455 6.54528 1.76104 6.02018 2.3066C5.49508 2.85216 5.20008 3.5921 5.20008 4.36364V7.27273C5.20008 7.67439 4.88668 8 4.50008 8C4.11348 8 3.80008 7.67439 3.80008 7.27273V4.36364C3.80008 3.20633 4.24258 2.09642 5.03023 1.27808C5.81788 0.459739 6.88617 0 8.00008 0C9.11399 0 10.1823 0.459739 10.9699 1.27808C11.7576 2.09642 12.2001 3.20633 12.2001 4.36364V7.27273C12.2001 7.67439 11.8867 8 11.5001 8C11.1135 8 10.8001 7.67439 10.8001 7.27273V4.36364C10.8001 3.5921 10.5051 2.85216 9.97998 2.3066C9.45488 1.76104 8.74269 1.45455 8.00008 1.45455Z" fill="#4E5D78"/>
</svg>
